# AST/ASF file generated using VICON BodyLanguage
# -----------------------------------------------
:version 1.10
:name VICON
:units
  mass 1.0
  length 0.45
  angle deg
:documentation
   .ast/.asf automatically generated from VICON data using
   VICON BodyBuilder and BodyLanguage model FoxedUp or BRILLIANT.MOD
:root
   order TX TY TZ RX RY RZ
   axis XYZ
   position 0 0 0  
   orientation 0 0 0 
:bonedata
  begin
     id 1 
     name lhipjoint
     direction 0.716248 -0.617586 0.324924 
     length 2.63557 
     axis 0 0 0  XYZ
  end
  begin
     id 2 
     name lfemur
     direction 0.34202 -0.939693 0  
     length 7.01235  
     axis 0 0 20  XYZ
    dof rx ry rz
    limits (-160.0 20.0)
           (-70.0 70.0)
           (-60.0 70.0)
  end
  begin
     id 3 
     name ltibia
     direction 0.34202 -0.939693 0   
     length 8.14348   
     axis 0 0 20   XYZ
    dof rx
    limits (-10.0 170.0)
  end
  begin
     id 4 
     name lfoot
     direction 0.0982064 -0.26982 0.95789   
     length 1.99077   
     axis -90 7.62852e-016 20   XYZ
    dof rx rz
    limits (-45.0 90.0)
           (-70.0 20.0)
  end
  begin
     id 5 
     name ltoes
     direction 1.53511e-011 -4.21891e-011 1   
     length 0.99735   
     axis -90 7.62852e-016 20   XYZ
    dof rx
    limits (-90.0 20.0)
  end
  begin
     id 6 
     name rhipjoint
     direction -0.687828 -0.642391 0.337975   
     length 2.5338  
     axis 0 0 0  XYZ 
  end
  begin
     id 7 
     name rfemur
     direction -0.34202 -0.939693 0   
     length 6.90199   
     axis 0 0 -20   XYZ
    dof rx ry rz
    limits (-160.0 20.0)
           (-70.0 70.0)
           (-70.0 60.0)
  end
  begin
     id 8 
     name rtibia
     direction -0.34202 -0.939693 0   
     length 8.07725   
     axis 0 0 -20   XYZ
    dof rx
    limits (-10.0 170.0)
 end
 begin
     id 9 
     name rfoot
     direction -0.0912384 -0.250675 0.963762   
     length 2.11621  
     axis -90 -7.62852e-016 -20   XYZ
    dof rx rz
    limits (-45.0 90.0)
           (-20.0 70.0)
  end
  begin
     id 10 
     name rtoes
     direction -1.5359e-011 -4.21894e-011 1   
     length 1.06031   
     axis -90 -7.62852e-016 -20   XYZ
    dof rx
    limits (-90.0 20.0)
  end
  begin
     id 11 
     name lowerback
     direction -0.0403572 0.987953 -0.149396   
     length 2.05637   
     axis 0 0 0   XYZ
    dof rx ry rz
    limits (-20.0 45.0)
           (-30.0 30.0)
           (-30.0 30.0)
  end
  begin
     id 12 
     name upperback
     direction -0.00512151 0.997598 0.0690792   
     length 2.01086   
     axis 0 0 0   XYZ
    dof rx ry rz
    limits (-20.0 45.0)
           (-30.0 30.0)
           (-30.0 30.0)
  end
  begin
     id 13 
     name thorax
     direction 0.0136133 0.989392 0.14463   
     length 2.09035   
     axis 0 0 0   XYZ
    dof rx ry rz
    limits (-20.0 45.0)
           (-30.0 30.0)
           (-30.0 30.0)
  end
  begin
     id 14 
     name lowerneck
     direction 0.0250714 0.992811 0.11704   
     length 1.70806   
     axis 0 0 0   XYZ
    dof rx ry rz
    limits (-20.0 45.0)
           (-30.0 30.0)
           (-30.0 30.0)
  end
  begin
     id 15 
     name upperneck
     direction -0.0519205 0.998394 -0.0226787   
     length 1.6689   
     axis 0 0 0   XYZ
    dof rx ry rz
    limits (-20.0 45.0)
           (-30.0 30.0)
           (-30.0 30.0)
  end
  begin
     id 16
     name head
     direction -0.0201693 0.999547 -0.0223192  
     length 1.83412  
     axis 0 0 0   XYZ
    dof rx ry rz
    limits (-20.0 45.0)
           (-30.0 30.0)
           (-30.0 30.0)
  end
  begin
     id 17 
     name lclavicle
     direction 0.89585 0.444077 -0.0157448  
     length 3.39587  
     axis 0 0 0   XYZ
    dof ry rz
    limits (-20.0 10.0)
           (0.0 20.0)
  end
  begin
     id 18 
     name lhumerus
     direction 1 -4.48956e-011 1.99132e-028   
     length 5.79199   
     axis 180 -30 -90   XYZ
    dof rx ry rz
    limits (-60.0 90.0)
           (-90.0 90.0)
           (-90.0 90.0)
  end
  begin
     id 19
     name lradius
     direction 1 -4.48974e-011 8.72912e-028   
     length 3.49908   
     axis 180 -30 -90   XYZ
    dof rx
    limits (-10.0 170.0)
  end
  begin
     id 20
     name lwrist
     direction 1 -4.48994e-011 4.76442e-027   
     length 1.74954   
     axis -3.27502e-015 90 90   XYZ
    dof ry
    limits (-180.0 0.0)
 end
  begin
     id 21 
     name lhand
     direction 1 -4.48945e-011 9.531e-027   
     length 0.593861   
     axis -6.08098e-015 90 90   XYZ
    dof rx rz
    limits (-90.0 90.0)
           (-45.0 45.0)
  end
  begin
     id 22 
     name lfingers
     direction 1 -4.48945e-011 1.9062e-026   
     length 0.478786   
     axis -1.21619e-014 90 90   XYZ
    dof rx
    limits (0.0 90.0)
  end
  begin
     id 23
     name lthumb
     direction 0.707107 -6.34904e-011 0.707107   
     length 0.687444   
     axis -90 45 -9.86923e-015   XYZ
    dof rx rz
    limits (-45.0 45.0)
           (-45.0 45.0)
  end
  begin
     id 24 
     name rclavicle
     direction -0.940466 0.338394 0.0318182   
     length 3.51226  
     axis 0 0 0   XYZ 
    dof ry rz
    limits (-10.0 20.0)
           (-20.0 0.0)
  end
  begin
     id 25 
     name rhumerus
     direction -1 -4.48976e-011 2.0905e-027  
     length 5.73799   
     axis 180 30 90   XYZ
    dof rx ry rz
    limits (-90.0 60.0)
           (-90.0 90.0)
           (-90.0 90.0)
  end
  begin
     id 26 
     name rradius
     direction -1 -4.48968e-011 -9.39692e-029   
     length 3.57916   
     axis 180 30 90   XYZ
    dof rx
    limits (-10.0 170.0)
  end
  begin
     id 27 
     name rwrist
     direction -1 -4.48959e-011 4.7652e-027   
     length 1.78958   
     axis -3.27502e-015 -90 -90   XYZ
    dof ry
    limits (-180.0 0.0)
  end
  begin
     id 28
     name rhand
     direction -1 -4.49042e-011 9.5267e-027   
     length 0.615577   
     axis -6.08098e-015 -90 -90   XYZ
    dof rx rz
    limits (-90.0 90.0)
           (-45.0 45.0)
  end
  begin
     id 29
     name rfingers
     direction -1 -4.48935e-011 1.90629e-026   
     length 0.496294   
     axis -1.21619e-014 -90 -90   XYZ
    dof rx
    limits (0.0 90.0)
  end
  begin
     id 30
     name rthumb
     direction -0.707107 -6.34977e-011 0.707107   
     length 0.712582   
     axis -90 -45 9.86923e-015   XYZ
    dof rx rz
    limits (-45.0 45.0)
           (-45.0 45.0)
  end
:hierarchy
  begin
    root lhipjoint rhipjoint lowerback
    lhipjoint lfemur
    lfemur ltibia
    ltibia lfoot
    lfoot ltoes
    rhipjoint rfemur
    rfemur rtibia
    rtibia rfoot
    rfoot rtoes
    lowerback upperback
    upperback thorax
    thorax lowerneck lclavicle rclavicle
    lowerneck upperneck
    upperneck head
    lclavicle lhumerus
    lhumerus lradius
    lradius lwrist
    lwrist lhand lthumb
    lhand lfingers
    rclavicle rhumerus
    rhumerus rradius
    rradius rwrist
    rwrist rhand rthumb
    rhand rfingers
  end

#!OML:ASF H:\Terrain\Patient Classification 1\PaulMetrics\March17Take5\PaulMetrics.ASF
:FULLY-SPECIFIED
:DEGREES
565
root 8.83211 17.4477 14.5235 11.0105 188.464 -3.87419
lowerback 2.00543 -1.06934 -5.1547
upperback -2.13918 -1.61833 0.695457
thorax -3.17451 -0.688879 3.68513
lowerneck -6.30235 6.20347 6.4719
upperneck 11.9685 8.47 -8.33148
head 5.26553 3.82265 -3.08318
rclavicle -1.88845e-015 7.15625e-015
rhumerus -48.0052 12.4868 -89.5818
rradius 36.3396
rwrist -6.11999
rhand -11.8864 -30.9083
rfingers 7.12502
rthumb 14.1664 -60.4053
lclavicle -1.88845e-015 7.15625e-015
lhumerus -43.2845 -18.1014 89.812
lradius 45.7132
lwrist 20.1573
lhand -7.94766 -19.5388
lfingers 7.12502
lthumb 17.9592 9.652
rfemur -38.3002 2.67325 19.1498
rtibia 42.0996
rfoot -10.8983 -6.21586
rtoes 8.78225
lfemur -5.72461 -0.392898 -23.1076
ltibia 51.343
lfoot 8.20196 0.167766
ltoes -11.2539
566
root 8.83423 17.4632 14.3592 10.7406 188.298 -3.54613
lowerback 2.03125 -1.21132 -5.06384
upperback -2.90486 -1.83866 1.05397
thorax -3.9564 -0.768606 4.03199
lowerneck -2.55782 6.18649 6.06723
upperneck 10.7596 8.50706 -8.60062
head 4.25854 3.88908 -3.22122
rclavicle -1.78906e-015 -5.56597e-015
rhumerus -49.8787 13.3525 -89.6764
rradius 36.9038
rwrist -5.85712
rhand -11.4715 -30.6035
rfingers 7.12502
rthumb 14.5663 -60.072
lclavicle -1.78906e-015 -5.56597e-015
lhumerus -45.3408 -16.7918 90.4735
lradius 44.8882
lwrist 19.6599
lhand -7.75509 -18.6234
lfingers 7.12502
lthumb 18.1445 10.5503
rfemur -37.331 2.96409 19.624
rtibia 41.9461
rfoot -11.4498 -6.30202
rtoes 8.23945
lfemur -6.76528 -0.45224 -22.7896
ltibia 53.5054
lfoot 6.68673 0.907783
ltoes -4.7976
567
root 8.84853 17.4787 14.2236 10.7141 188.616 -3.15987
lowerback 2.46315 -0.859585 -4.34945
upperback -1.71997 -1.30646 0.743699
thorax -3.04236 -0.555895 3.27261
lowerneck -8.47738 6.14383 6.26437
upperneck 12.4765 8.3692 -8.14964
head 5.77086 3.72977 -2.93637
rclavicle -5.26779e-015 -5.96354e-015
rhumerus -46.7867 12.1138 -89.0449
rradius 37.0367
rwrist -6.09611
rhand -12.1919 -30.6588
rfingers 7.12502
rthumb 13.8721 -60.1762
lclavicle -5.26779e-015 -5.96354e-015
lhumerus -42.1622 -18.2746 89.5706
lradius 43.5894
lwrist 19.8813
lhand -7.66351 -19.0053
lfingers 7.12502
lthumb 18.2326 10.1602
rfemur -36.6536 2.86141 20.2342
rtibia 41.7217
rfoot -11.8942 -6.49706
rtoes 7.61627
lfemur -8.47366 -0.761698 -22.3136
ltibia 55.6966
lfoot 5.51845 1.48613
ltoes -2.6074
568
root 8.85096 17.4935 14.0837 10.77 188.75 -2.81268
lowerback 2.21755 -1.21317 -4.18813
upperback -2.48033 -1.78223 1.2334
thorax -3.64067 -0.772014 3.71904
lowerneck -4.7983 6.27505 5.67929
upperneck 11.2735 8.63845 -8.41185
head 4.77834 3.90092 -3.0182
rclavicle -2.93207e-015 -3.57812e-015
rhumerus -48.2985 13.8092 -89.2766
rradius 37.5281
rwrist -6.74768
rhand -13.084 -30.49
rfingers 7.12502
rthumb 13.0122 -60.0641
lclavicle -2.93207e-015 -3.57812e-015
lhumerus -44.0133 -16.5436 90.1257
lradius 42.8193
lwrist 19.3242
lhand -7.56815 -19.7091
lfingers 7.12502
lthumb 18.3243 9.44778
rfemur -36.0114 2.6775 20.7752
rtibia 41.3849
rfoot -12.184 -6.3574
rtoes 7.19502
lfemur -10.3977 -0.814506 -21.9851
ltibia 57.7794
lfoot 4.62736 1.79607
ltoes -1.87405
569
root 8.85479 17.5132 13.9333 10.7775 188.955 -2.62821
lowerback 2.73317 -0.936343 -3.82032
upperback -1.9516 -1.39712 1.04512
thorax -3.4305 -0.597802 3.30111
lowerneck -8.59335 6.17664 5.93352
upperneck 12.6439 8.47791 -8.34685
head 5.84606 3.73832 -2.93256
rclavicle 5.66536e-015 6.36111e-015
rhumerus -46.5493 12.5531 -88.4357
rradius 37.7622
rwrist -5.94126
rhand -11.7736 -31.1536
rfingers 7.12502
rthumb 14.2752 -60.6429
lclavicle 5.66536e-015 6.36111e-015
lhumerus -42.5021 -17.4218 89.864
lradius 41.7544
lwrist 19.1893
lhand -7.24041 -19.4047
lfingers 7.12502
lthumb 18.6396 9.72223
rfemur -35.1722 2.58407 21.1292
rtibia 40.9352
rfoot -12.3817 -6.40668
rtoes 6.53157
lfemur -12.3773 -0.709626 -21.853
ltibia 59.695
lfoot 4.00009 1.64653
ltoes -6.17919
570
root 8.86987 17.5498 13.7772 10.5786 189.261 -2.55827
lowerback 2.29877 -0.86879 -3.63654
upperback -2.07518 -1.29688 0.824315
thorax -3.32972 -0.557736 2.95623
lowerneck -6.36061 5.81529 6.58557
upperneck 11.7202 7.96732 -8.73563
head 5.1805 3.56157 -3.26778
rclavicle -4.96962e-017 -3.57812e-015
rhumerus -46.7844 11.2208 -87.8604
rradius 38.1677
rwrist -3.26045
rhand -7.57235 -33.4678
rfingers 7.12502
rthumb 18.3203 -62.625
lclavicle -4.96962e-017 -3.57812e-015
lhumerus -43.2769 -17.6917 89.8686
lradius 40.9517
lwrist 18.7209
lhand -7.19945 -19.0652
lfingers 7.12502
lthumb 18.679 10.058
rfemur -33.9794 2.69081 21.3654
rtibia 40.4125
rfoot -12.7859 -6.77055
rtoes 6.57113
lfemur -14.2539 -0.442397 -21.8645
ltibia 61.3138
lfoot 3.74005 1.21501
ltoes -14.5043
571
root 8.8819 17.5881 13.6233 10.3869 189.185 -2.41448
lowerback 2.70892 -0.860352 -3.43862
upperback -2.04855 -1.29126 0.761403
thorax -3.53932 -0.55524 2.78794
lowerneck -6.93506 5.90239 6.47198
upperneck 11.9387 8.07964 -8.61872
head 5.34572 3.60279 -3.18743
rclavicle 1.4064e-014 7.55382e-015
rhumerus -46.5717 12.0342 -88.6349
rradius 38.1299
rwrist -7.52489
rhand -13.1374 -31.8357
rfingers 7.12502
rthumb 12.9608 -61.4131
lclavicle 1.4064e-014 7.55382e-015
lhumerus -43.2688 -17.1356 89.4437
lradius 40.2757
lwrist 18.1373
lhand -7.00049 -19.0944
lfingers 7.12502
lthumb 18.8703 10.0103
rfemur -32.8752 3.01696 21.6333
rtibia 39.9554
rfoot -13.3962 -6.9202
rtoes 7.60171
lfemur -15.8272 -0.0365525 -21.8652
ltibia 62.6205
lfoot 3.30343 1.04066
ltoes -19.0399
572
root 8.88896 17.6011 13.4769 10.2605 188.945 -2.31384
lowerback 2.37871 -0.832814 -3.71216
upperback -2.00362 -1.2462 1.00175
thorax -3.2997 -0.529269 3.18064
lowerneck -6.05401 5.95569 6.08317
upperneck 11.48 8.19853 -8.70755
head 5.05113 3.66219 -3.1692
rclavicle -3.32964e-015 1.31198e-014
rhumerus -46.6317 12.7609 -88.4813
rradius 38.5833
rwrist -9.04667
rhand -15.5023 -30.5481
rfingers 7.12502
rthumb 10.6803 -60.2567
lclavicle -3.32964e-015 1.31198e-014
lhumerus -43.5791 -16.2079 89.5258
lradius 39.6749
lwrist 17.7923
lhand -6.64137 -18.9305
lfingers 7.12502
lthumb 19.2157 10.1402
rfemur -31.9244 3.18295 21.8773
rtibia 39.4964
rfoot -14.0231 -6.8945
rtoes 8.56906
lfemur -16.9353 -0.0203733 -21.8329
ltibia 63.6663
lfoot 2.38385 1.44437
ltoes -16.993
573
root 8.89464 17.5865 13.3452 10.2535 188.783 -2.25874
lowerback 2.29462 -0.765008 -3.83576
upperback -2.50657 -1.17965 1.03697
thorax -3.77756 -0.480507 3.28923
lowerneck -3.83863 5.87661 6.22115
upperneck 10.9854 8.10448 -8.91098
head 4.5304 3.65642 -3.32751
rclavicle 1.19271e-014 7.95139e-016
rhumerus -47.6922 12.9042 -88.4565
rradius 39.528
rwrist -9.10405
rhand -16.0971 -31.0495
rfingers 7.12502
rthumb 10.1064 -60.7868
lclavicle 1.19271e-014 7.95139e-016
lhumerus -44.9761 -15.5505 89.7032
lradius 39.188
lwrist 17.1785
lhand -6.75381 -18.5546
lfingers 7.12502
lthumb 19.1076 10.5269
rfemur -31.2777 3.23075 22.0929
rtibia 39.1761
rfoot -14.4982 -6.9505
rtoes 8.16487
lfemur -17.7944 -0.597492 -21.6475
ltibia 64.5323
lfoot 0.648399 2.22281
ltoes -2.0127
574
root 8.89937 17.6182 13.2004 10.4694 188.542 -2.28812
lowerback 2.20693 -0.520402 -3.70739
upperback -1.78123 -0.822012 0.745351
thorax -3.0105 -0.32863 2.88705
lowerneck -7.34935 5.99163 6.21575
upperneck 11.9624 8.21508 -8.53984
head 5.42071 3.65484 -3.09845
rclavicle 2.43511e-015 -9.14409e-015
rhumerus -45.5877 12.1499 -87.9103
rradius 40.1304
rwrist -8.77501
rhand -15.8645 -32.1439
rfingers 7.12502
rthumb 10.3308 -61.8701
lclavicle 2.43511e-015 -9.14409e-015
lhumerus -43.2031 -15.8425 88.9457
lradius 38.5761
lwrist 16.6398
lhand -7.06208 -18.0296
lfingers 7.12502
lthumb 18.8111 11.0808
rfemur -30.7351 3.31719 22.1834
rtibia 38.7907
rfoot -14.6603 -6.89594
rtoes 7.69514
lfemur -19.9935 0.0541383 -22.0146
ltibia 65.3396
lfoot 0.323816 2.04978
ltoes -11.3581
575
root 8.90049 17.6429 13.0534 10.5042 188.357 -2.48971
lowerback 1.90159 -0.607529 -4.05249
upperback -2.48643 -0.970378 0.835133
thorax -3.55248 -0.379846 3.18416
lowerneck -3.73962 5.94597 5.86686
upperneck 10.7851 8.19043 -8.59404
head 4.43227 3.71118 -3.17035
rclavicle -3.71479e-014 -8.74653e-015
rhumerus -47.1472 12.7679 -87.9687
rradius 41.0072
rwrist -8.84767
rhand -16.1054 -32.5011
rfingers 7.12502
rthumb 10.0985 -62.2388
lclavicle -3.71479e-014 -8.74653e-015
lhumerus -45.0655 -14.8298 89.2291
lradius 38.1953
lwrist 16.4072
lhand -7.05317 -17.833
lfingers 7.12502
lthumb 18.8197 11.2766
rfemur -29.9321 3.40461 22.0495
rtibia 38.4075
rfoot -14.8288 -6.86495
rtoes 9.49945
lfemur -21.2084 -0.0487801 -22.3267
ltibia 65.9204
lfoot -0.810365 2.09772
ltoes -7.71296
576
root 8.90903 17.6586 12.9034 10.4731 188.179 -2.5437
lowerback 1.96301 -0.325492 -4.03448
upperback -2.33768 -0.597545 0.547375
thorax -3.46695 -0.200908 2.85781
lowerneck -4.70583 5.78269 6.23906
upperneck 11.064 7.9536 -8.6939
head 4.68128 3.5852 -3.24779
rclavicle 2.19657e-014 1.59028e-015
rhumerus -46.6503 12.007 -87.7377
rradius 41.5022
rwrist -9.14334
rhand -16.8322 -32.0617
rfingers 7.12502
rthumb 9.39721 -61.8322
lclavicle 2.19657e-014 1.59028e-015
lhumerus -44.6967 -15.3111 88.9253
lradius 37.5454
lwrist 16.7395
lhand -6.61337 -18.1628
lfingers 7.12502
lthumb 19.2426 10.9052
rfemur -28.9716 3.72797 22.0817
rtibia 37.8186
rfoot -15.2077 -7.0393
rtoes 11.8218
lfemur -22.2502 -0.0762706 -22.4213
ltibia 66.3655
lfoot -1.86274 2.24709
ltoes -5.06409
